<svg width="160" height="43" viewBox="0 0 160 43" fill="none" xmlns="http://www.w3.org/2000/svg">
<g clip-path="url(#clip0_1601_220)">
<path d="M0.481106 29.0055C0.787758 26.4435 3.36724 24.519 5.89261 24.6874C9.62053 24.8498 12.9035 27.0269 15.5672 29.4806C18.6156 32.3492 22.3496 34.7909 26.5946 35.278C30.0519 35.7411 33.5574 34.5924 36.3473 32.5657C34.9223 35.3382 32.8479 38.2971 29.5709 38.9105C24.7848 39.8366 20.0828 37.4972 16.415 34.6105C13.7092 32.2049 10.787 30.0158 7.50403 28.4642C8.03316 32.668 10.3541 36.565 13.8174 39.0127C16.421 40.9312 19.4755 42.1941 22.6262 42.8978C17.6837 43.3368 12.2962 42.122 8.72463 38.4895C6.00084 35.8434 4.62992 32.1448 4.00459 28.4702C2.08652 30.2083 2.00234 32.9386 2.08652 35.3382C0.992192 33.4317 0.180467 31.2306 0.481106 29.0055Z" fill="#EF6722"/>
<path d="M0.0841801 13.9945C0.390832 16.5565 2.97031 18.481 5.49568 18.3126C9.2236 18.1502 12.5066 15.9731 15.1702 13.5194C18.2187 10.6508 21.9527 8.20909 26.1977 7.72196C29.655 7.25888 33.1605 8.40755 35.9504 10.4343C34.5314 7.66182 32.457 4.70294 29.174 4.08951C24.3878 3.16336 19.6858 5.5028 16.018 8.38951C13.3123 10.7951 10.3901 12.9842 7.1071 14.5358C7.63623 10.332 9.95716 6.43497 13.4205 3.98727C16.0241 2.06881 19.0785 0.805874 22.2292 0.102238C17.2807 -0.336783 11.8933 0.878042 8.32168 4.51049C5.5979 7.15664 4.22698 10.8552 3.60166 14.5298C1.68358 12.7917 1.5994 10.0614 1.68358 7.66182C0.595266 9.56825 -0.210446 11.7694 0.0841801 13.9945Z" fill="#EF6722"/>
<path d="M43.6708 20.5137C44.0797 20.7062 44.3803 20.9467 44.5727 21.2354C44.7651 21.5241 44.7892 21.8608 44.6449 22.2457L43.8512 24.4769C43.5385 25.2948 42.835 25.8962 41.7467 26.2751C40.6524 26.66 39.3176 26.8524 37.7302 26.8524H26.0654C25.416 26.8524 24.7967 26.8043 24.2135 26.7081C23.6242 26.6119 23.1191 26.4615 22.6982 26.2571C22.2773 26.0526 21.9707 25.806 21.7783 25.5173C21.5859 25.2287 21.5618 24.8919 21.7061 24.507H38.3796L39.065 22.6727L43.316 20.4055C43.4303 20.4536 43.5505 20.4897 43.6708 20.5137ZM39.1672 22.3841H27.4664C26.817 22.3841 26.2097 22.3359 25.6505 22.2397C25.0853 22.1435 24.6103 21.9931 24.2255 21.7887C23.8407 21.5842 23.5641 21.3376 23.3957 21.049C23.2274 20.7603 23.2153 20.4115 23.3596 20.0025L24.0451 18.1322C24.2135 17.6751 24.49 17.2842 24.8749 16.9594C25.2597 16.6347 25.7227 16.3641 26.2638 16.1476C26.805 15.9311 27.3942 15.7747 28.0256 15.6785C28.6629 15.5822 29.3183 15.5341 29.9857 15.5341H41.903C43.4363 15.5341 44.6208 15.7266 45.4506 16.1115C46.2803 16.4964 46.5389 17.0978 46.2262 17.9097H29.6971L28.9395 19.9965H40.2435C40.8929 19.9965 41.5182 20.0326 42.1135 20.1048C42.5705 20.1769 42.9673 20.2731 43.304 20.3934L39.059 22.6727L39.1672 22.3841Z" fill="#224682"/>
<path d="M69.67 20.0085C69.3814 20.8024 68.6058 21.3978 67.3491 21.7887C66.0864 22.1856 64.5231 22.3841 62.6471 22.3841H54.4698C54.566 22.1435 54.7223 21.8789 54.9387 21.5902C55.1552 21.3015 55.4318 21.0429 55.7685 20.8144C56.1052 20.5859 56.5081 20.3934 56.9771 20.2371C57.4461 20.0807 57.9692 20.0025 58.5464 20.0025H64.1623L64.92 17.9157H53.8985L51.6317 24.1822C51.2469 25.2407 50.5133 25.9624 49.4371 26.3413C48.8839 26.5337 48.2886 26.66 47.6573 26.7201C47.0199 26.7803 46.3765 26.8103 45.7332 26.8103H45.192L49.2988 15.5401H66.2969C67.788 15.5401 68.9184 15.7446 69.7001 16.1536C70.4818 16.5625 70.7283 17.1519 70.4397 17.9157L69.67 20.0085Z" fill="#224682"/>
<path d="M92.2119 24.5491C92.0676 24.958 91.8151 25.3008 91.4543 25.5775C91.0936 25.8541 90.6486 26.0887 90.1195 26.2811C89.5904 26.4736 89.0071 26.6119 88.3758 26.6961C87.7384 26.7803 87.071 26.8224 86.3796 26.8224H74.2458C73.5723 26.8224 72.959 26.7683 72.4119 26.66C71.8587 26.5517 71.4017 26.3954 71.041 26.1909C70.6802 25.9864 70.4216 25.7459 70.2653 25.4692C70.109 25.1926 70.0909 24.8738 70.2112 24.513L72.6584 17.8495C72.7787 17.5127 73.0192 17.2 73.3799 16.9113C73.7407 16.6227 74.1796 16.3761 74.6967 16.1716C75.2138 15.9671 75.785 15.8108 76.4044 15.7025C77.0297 15.5943 77.6791 15.5401 78.3465 15.5401H90.4803C91.9714 15.5401 93.1018 15.7386 93.8835 16.1355C94.6652 16.5324 94.9117 17.1158 94.6231 17.8796L92.2119 24.5491ZM78.094 17.9217L75.6828 24.513H86.7403L89.1514 17.9217H78.094Z" fill="#224682"/>
<path d="M119.324 20.0446C119.059 20.7663 118.446 21.3316 117.49 21.7345C116.528 22.1435 115.283 22.372 113.744 22.4201L117.345 26.8524H110.719L105.392 20.0085H113.888L114.646 17.9217H103.552L101.285 24.1522C100.9 25.2106 100.179 25.9323 99.1266 26.3112C98.5735 26.5036 97.9782 26.6299 97.3469 26.6901C96.7095 26.7502 96.0661 26.7803 95.4228 26.7803H94.8816L98.9523 15.5462H115.986C117.502 15.5462 118.632 15.7506 119.39 16.1596C120.147 16.5685 120.382 17.1579 120.093 17.9217L119.324 20.0446Z" fill="#224682"/>
<path d="M136.177 18.7817L134.127 24.4709C133.814 25.3129 133.315 25.9143 132.63 26.2691C131.944 26.6299 130.85 26.8103 129.335 26.8103H127.747L130.736 18.5652L130.988 17.9157H122.564L122.673 17.5909C122.961 16.7971 123.49 16.2558 124.254 15.9731C125.024 15.6845 126.016 15.5401 127.242 15.5401H145.641L145.461 16.0453C145.293 16.5264 144.998 16.8933 144.577 17.1459C144.156 17.3985 143.693 17.5789 143.188 17.6871C142.683 17.7954 142.172 17.8615 141.655 17.8856C141.138 17.9097 140.699 17.9217 140.338 17.9217H136.484L136.177 18.7817Z" fill="#224682"/>
<path d="M159.146 22.4201H154.252L153.206 25.3008H148.882L149.929 22.4201H145.07L145.9 20.189H150.758L151.841 17.1639H156.164L155.082 20.189H159.976L159.146 22.4201Z" fill="#EF6722"/>
</g>
<defs>
<clipPath id="clip0_1601_220">
<rect width="160" height="43" fill="white"/>
</clipPath>
</defs>
</svg>
